<?xml version="1.0" encoding="utf-8"?>
<!-- Generator: Adobe Illustrator 22.0.1, SVG Export Plug-In . SVG Version: 6.00 Build 0)  -->
<svg version="1.1" id="Capa_1" xmlns="http://www.w3.org/2000/svg" xmlns:xlink="http://www.w3.org/1999/xlink" x="0px" y="0px"
	 viewBox="0 0 409.2 409.2" style="enable-background:new 0 0 409.2 409.2;" xml:space="preserve">
<style type="text/css">
	.st0{fill:#000;}
	.st1{font-family:'Franklin Gothic';}
	.st2{font-size:170.1548px;}
</style>
<g>
	<g>
		<path class="st0" d="M204.6,134.9c28.6,0,51.8-27.3,51.8-60.9c0-46.7-23.2-60.9-51.8-60.9c-28.6,0-51.8,14.3-51.8,60.9
			C152.8,107.6,176,134.9,204.6,134.9z"/>
		<path class="st0" d="M319,224.5l-26.1-59.2c-1.2-2.7-3.3-5-5.9-6.3l-40.6-21.2c-0.9-0.5-2-0.4-2.8,0.2c-11.5,8.7-25,13.3-39,13.3
			c-14.1,0-27.5-4.6-39-13.3c-0.8-0.6-1.9-0.7-2.8-0.2l-40.6,21.2c-2.6,1.4-4.7,3.6-5.9,6.3l-26.1,59.2c-1.8,4.1-1.4,8.7,1,12.5
			c2.4,3.7,6.5,6,11,6h204.9c4.4,0,8.5-2.2,11-6C320.4,233.3,320.8,228.6,319,224.5z"/>
	</g>
</g>
<text transform="matrix(0.6108 0 0 1 20.4219 398.8232)" class="st0 st1 st2">ROSTER</text>
</svg>
