<?xml version="1.0" encoding="utf-8"?>
<!-- Generator: Adobe Illustrator 22.0.1, SVG Export Plug-In . SVG Version: 6.00 Build 0)  -->
<svg version="1.1" id="Capa_1" xmlns="http://www.w3.org/2000/svg" xmlns:xlink="http://www.w3.org/1999/xlink" x="0px" y="0px"
	 viewBox="0 0 32 32" style="enable-background:new 0 0 32 32;" xml:space="preserve">
<style type="text/css">
	.st0{fill:#000;}
	.st1{font-family:'Franklin Gothic';}
	.st2{font-size:13.4217px;}
</style>
<g>
	<g id="calendar_1_">
		<path class="st0" d="M24.1,2h-2.8V0.8c0-0.3-0.3-0.6-0.6-0.6s-0.6,0.3-0.6,0.6V2h-3.9V0.8c0-0.3-0.3-0.6-0.6-0.6S15,0.5,15,0.8V2
			h-3.9V0.8c0-0.3-0.3-0.6-0.6-0.6S9.9,0.5,9.9,0.8V2h-3c-1,0-1.7,0.7-1.7,1.6v14.3c0,0.9,0.8,1.6,1.7,1.6h17.3c1,0,1.7-0.7,1.7-1.6
			V3.6C25.9,2.7,25.1,2,24.1,2z M24.6,17.9c0,0.2-0.2,0.4-0.4,0.4H6.9c-0.2,0-0.4-0.2-0.4-0.4V3.6c0-0.2,0.2-0.4,0.4-0.4h2.8v1.2
			C9.7,4.7,10,5,10.3,5s0.6-0.3,0.6-0.6V3.2h3.9v1.2c0,0.3,0.3,0.6,0.6,0.6C15.7,5,16,4.7,16,4.4V3.2h3.9v1.2c0,0.3,0.3,0.6,0.6,0.6
			s0.6-0.3,0.6-0.6V3.2h2.8c0.2,0,0.4,0.2,0.4,0.4v14.3H24.6z"/>
		<rect x="9.7" y="7.4" class="st0" width="2.6" height="1.8"/>
		<rect x="9.7" y="10.4" class="st0" width="2.6" height="1.8"/>
		<rect x="9.7" y="13.5" class="st0" width="2.6" height="1.8"/>
		<rect x="14.2" y="13.5" class="st0" width="2.6" height="1.8"/>
		<rect x="14.2" y="10.4" class="st0" width="2.6" height="1.8"/>
		<rect x="14.2" y="7.4" class="st0" width="2.6" height="1.8"/>
		<rect x="18.7" y="13.5" class="st0" width="2.6" height="1.8"/>
		<rect x="18.7" y="10.4" class="st0" width="2.6" height="1.8"/>
		<rect x="18.7" y="7.4" class="st0" width="2.6" height="1.8"/>
	</g>
</g>
<text transform="matrix(0.4763 0 0 1 0.417 31.376)" class="st0 st1 st2">SCHEDULE</text>
</svg>
