<?xml version="1.0" encoding="utf-8"?>
<!-- Generator: Adobe Illustrator 20.0.0, SVG Export Plug-In . SVG Version: 6.00 Build 0)  -->
<svg version="1.1" id="Layer_1" xmlns="http://www.w3.org/2000/svg" xmlns:xlink="http://www.w3.org/1999/xlink" x="0px" y="0px"
	 viewBox="0 0 30 30" style="enable-background:new 0 0 30 30;" xml:space="preserve">
<style type="text/css">
	.st0{fill:#000;}
</style>
<g>
	<g>
		<path class="st0" d="M20,15.8c-0.3,0.9-0.8,1.8-1.5,2.6c-0.6,0.7-1.3,1.4-2.1,1.8l8.4,7l3.7-4.4L20,15.8z"/>
	</g>
	<g>
		<path class="st0" d="M10.6,2.8v3.6c1.3,0,2.5,0.4,3.5,1.3c1.1,0.9,1.8,2.2,2,3.7c0.1,1.5-0.3,2.9-1.2,4c-1,1.3-2.6,2-4.2,2
			c-1.3,0-2.5-0.4-3.5-1.3c-2.3-1.9-2.6-5.4-0.7-7.7c1-1.3,2.6-2,4.2-2L10.6,2.8 M10.6,2.8c-2.6,0-5.2,1.1-7,3.3
			c-3.2,3.8-2.7,9.6,1.2,12.7c1.7,1.4,3.7,2.1,5.8,2.1c2.6,0,5.2-1.1,7-3.3c3.2-3.9,2.7-9.6-1.2-12.8C14.6,3.5,12.6,2.8,10.6,2.8"/>
	</g>
</g>
</svg>
