<?xml version="1.0" encoding="utf-8"?>
<!-- Generator: Adobe Illustrator 22.0.1, SVG Export Plug-In . SVG Version: 6.00 Build 0)  -->
<svg version="1.1" id="Capa_1" xmlns="http://www.w3.org/2000/svg" xmlns:xlink="http://www.w3.org/1999/xlink" x="0px" y="0px"
	 viewBox="0 0 304.8 304.8" style="enable-background:new 0 0 304.8 304.8;" xml:space="preserve">
<style type="text/css">
	.st0{fill:#000;}
	.st1{font-family:'Franklin Gothic';}
	.st2{font-size:126.2998px;}
</style>
<g>
	<g>
		<path class="st0" d="M207.4,87.5c-10.9,0-21,4.2-28.9,11.3c0-1.6-0.4-3.3-1.3-4.8l-17-28.3l-10.2,16.9l-4.4,7.3l-12.4-20.6
			l-23.8-39.4L100.8,44l-2,3.4L93.2,38l-11-18.2V10H66.5v23.2H50.8v17.4h15.7v17.4H50.8v17.4h15.7V103H50.8v17.4h15.7v17.4H50.8
			v17.4h15.7v23.2h15.7V51.1l16.6,27.6l10.5-17.4l36.2,60l14.6-24.2l4,6.6c1.5,2.5,4,3.9,6.5,3.9c-6.2,8.8-9.9,19.7-9.9,31.7
			c0,28.5,20.9,51.7,46.6,51.7c25.7,0,46.6-23.2,46.6-51.7C254,110.7,233.1,87.5,207.4,87.5z M235.7,153.1c-1.6-0.9-3.3-1.4-5.2-1.4
			c-6.6,0-11.9,5.9-11.9,13.2c0,2.1,0.5,4,1.3,5.8c-3.8,1.9-8,2.9-12.4,2.9c-4.4,0-8.6-1-12.4-2.9c0.8-1.8,1.3-3.7,1.3-5.8
			c0-7.3-5.3-13.2-11.9-13.2c-1.9,0-3.7,0.5-5.2,1.4c-1.7-4.2-2.6-8.9-2.6-13.8c0-4.9,0.9-9.6,2.6-13.8c1.6,0.9,3.3,1.4,5.2,1.4
			c6.6,0,11.9-5.9,11.9-13.2c0-2.1-0.5-4-1.3-5.8c3.8-1.9,8-2.9,12.4-2.9c4.4,0,8.6,1,12.4,2.9c-0.8,1.8-1.3,3.7-1.3,5.8
			c0,7.3,5.3,13.2,11.9,13.2c1.9,0,3.7-0.5,5.2-1.4c1.7,4.2,2.6,8.9,2.6,13.8C238.3,144.2,237.4,148.9,235.7,153.1z"/>
		<path class="st0" d="M207.4,126.1c6.6,0,11.9,5.9,11.9,13.2c0,7.3-5.3,13.2-11.9,13.2c-6.6,0-11.9-5.9-11.9-13.2
			C195.5,132,200.8,126.1,207.4,126.1z"/>
	</g>
</g>
<text transform="matrix(0.7202 0 0 1 33 293.2705)" class="st0 st1 st2">STATS</text>
</svg>
