<?xml version="1.0" encoding="utf-8"?>
<!-- Generator: Adobe Illustrator 20.0.0, SVG Export Plug-In . SVG Version: 6.00 Build 0)  -->
<svg version="1.1" id="Capa_1" xmlns="http://www.w3.org/2000/svg" xmlns:xlink="http://www.w3.org/1999/xlink" x="0px" y="0px"
	 viewBox="0 0 59.3 59.3" style="enable-background:new 0 0 59.3 59.3;" xml:space="preserve">
<style type="text/css">
	.st0{fill:#000;}
</style>
<g>
	<g>
		<path class="st0" d="M20,18.2c-1.1,0-1.3,0.6-1.5,1.5L17,26.2l0,0l-1.3-5.9c-0.3-1.2-0.6-2.1-2-2c-1.4,0-1.6,0.9-1.9,2l-1.3,5.9
			l0,0L9,19.7c-0.2-0.9-0.4-1.5-1.5-1.5c-0.8,0-1.5,0.6-1.5,1.4c0,0.4,0.1,0.8,0.2,1.1l2.2,7.1c0.4,1.4,0.8,1.6,1.9,1.6
			c1.2,0,1.6-0.4,1.9-1.6l1.5-5.9l0,0l1.5,5.9c0.3,1.2,0.6,1.6,1.9,1.6c1.2,0,1.5-0.2,1.9-1.6l2.2-7.1c0.1-0.3,0.2-0.7,0.2-1.1
			C21.5,18.8,20.8,18.2,20,18.2z"/>
		<path class="st0" d="M35.9,18.2c-1.1,0-1.3,0.6-1.5,1.5L33,26.2l0,0l-1.3-5.9c-0.3-1.2-0.6-2.1-2-2c-1.4,0-1.6,0.9-1.9,2l-1.3,5.9
			l0,0l-1.6-6.5c-0.2-0.9-0.4-1.5-1.5-1.5c-0.8,0-1.5,0.6-1.5,1.4c0,0.4,0.1,0.8,0.2,1.1l2.2,7.1c0.4,1.4,0.8,1.6,1.9,1.6
			c1.2,0,1.6-0.4,1.9-1.6l1.5-5.9l0,0l1.5,5.9c0.3,1.2,0.6,1.6,1.9,1.6c1.2,0,1.5-0.2,1.9-1.6l2.2-7.1c0.1-0.3,0.2-0.7,0.2-1.1
			C37.3,18.8,36.7,18.2,35.9,18.2z"/>
		<path class="st0" d="M51.8,18.2c-1.1,0-1.3,0.6-1.5,1.5l-1.5,6.5l0,0l-1.3-5.9c-0.3-1.2-0.6-2.1-2-2c-1.4,0-1.6,0.9-1.9,2
			l-1.3,5.9l0,0l-1.6-6.5c-0.2-0.9-0.4-1.5-1.5-1.5c-0.8,0-1.5,0.6-1.5,1.4c0,0.4,0.1,0.8,0.2,1.1l2.2,7.1c0.4,1.4,0.8,1.6,1.9,1.6
			c1.2,0,1.6-0.4,1.9-1.6l1.5-5.9l0,0l1.5,5.9c0.3,1.2,0.6,1.6,1.9,1.6c1.2,0,1.5-0.2,1.9-1.6l2.2-7.1c0.1-0.3,0.2-0.7,0.2-1.1
			C53.2,18.8,52.5,18.2,51.8,18.2z"/>
		<path class="st0" d="M56.5,38.6c0.6,0,1-0.4,1-1V8.8c0-0.6-0.4-1-1-1h-53c-0.6,0-1,0.4-1,1v28.9c0,0.6,0.4,1,1,1L56.5,38.6
			L56.5,38.6z M4.5,9.8h51v26.9h-51V9.8z"/>
		<path class="st0" d="M58.3,1.6H1c-0.6,0-1,0.4-1,1v3.1c0,0.6,0.4,1,1,1h57.3c0.6,0,1-0.4,1-1V2.6C59.3,2.1,58.9,1.6,58.3,1.6z
			 M57.3,4.8H2V3.6h55.3V4.8z"/>
		<path class="st0" d="M58.3,39.6H1c-0.6,0-1,0.4-1,1v3.1c0,0.6,0.4,1,1,1h17.7l-3.2,11.7c-0.1,0.5,0.2,1.1,0.7,1.2
			c0.1,0,0.2,0,0.3,0c0.4,0,0.8-0.3,1-0.7l3.3-12.2H39L43.1,57c0.1,0.4,0.5,0.7,0.9,0.7c0.1,0,0.2,0,0.3-0.1
			c0.5-0.2,0.8-0.7,0.6-1.3L41,44.6h17.2c0.6,0,1-0.4,1-1v-3.1C59.3,40.1,58.9,39.6,58.3,39.6z M57.3,42.7H2v-1.1h55.3V42.7z"/>
	</g>
</g>
</svg>
